<svg width="64" height="64" viewBox="0 0 64 64" fill="none" xmlns="http://www.w3.org/2000/svg">
<circle cx="32" cy="32" r="32" fill="#25B89D"/>
<path d="M44.6884 40.2688C44.6884 35.1207 41.9764 31.5648 36.3897 28.2743L33.1895 26.3637L33.2437 15.3245C38.3423 16.4391 35.9015 21.8525 40.6746 21.8525C42.4103 21.8525 43.6036 20.791 43.6036 19.1458C43.6036 15.6961 39.5356 12.6709 33.298 12.2994V6.62061H30.3148L30.2605 12.2994C23.3178 12.724 19.0871 15.8553 19.0871 20.4726C19.0871 23.9223 20.8227 26.3637 24.728 28.752L29.8808 31.9363C29.9351 31.9894 30.0436 32.0425 30.0978 32.0425L30.0436 47.8582C24.8908 46.9029 26.301 39.9503 21.6906 39.9503C20.0091 39.9503 18.8159 41.0649 18.7616 42.7101C18.5989 47.1682 23.1008 50.2995 29.9893 50.8303V56.8275H32.9725V50.8833C40.0237 50.5118 44.6884 46.4783 44.6884 40.2688ZM25.3789 19.0927C25.3247 16.8106 27.1146 15.4307 30.2605 15.2184L30.2063 24.6123C26.2468 22.2771 25.4332 20.738 25.3789 19.0927ZM33.0268 47.8051L33.081 34.1123C36.3897 36.7129 38.0711 39.3135 38.0711 42.2855C38.0711 45.3107 36.2269 47.3275 33.0268 47.8051Z" fill="#F5EBE0"/>
</svg>
