<svg width="708" height="595" viewBox="0 0 708 595" fill="none" xmlns="http://www.w3.org/2000/svg">
<path d="M200.281 405.936L205.631 400.68L197.096 391.992L193.179 403.524L200.281 405.936ZM302.546 510.033L297.196 515.289L306.308 524.565L309.775 512.033L302.546 510.033ZM415.808 100.607L421.81 96.1095L412.651 83.8864L408.579 98.607L415.808 100.607ZM510.009 226.33L504.007 230.828L509.666 238.38L515.745 231.162L510.009 226.33ZM701.36 7.35967C701.006 3.23265 697.374 0.173606 693.247 0.527113L625.994 6.2879C621.867 6.64141 618.807 10.2736 619.161 14.4006C619.514 18.5276 623.147 21.5867 627.274 21.2332L687.055 16.1125L692.175 75.8936C692.529 80.0206 696.161 83.0796 700.288 82.7261C704.415 82.3726 707.474 78.7404 707.121 74.6134L701.36 7.35967ZM193.179 403.524L0.102507 972.019L14.3057 976.843L207.383 408.348L193.179 403.524ZM307.897 504.777L205.631 400.68L194.931 411.192L297.196 515.289L307.897 504.777ZM408.579 98.607L295.318 508.034L309.775 512.033L423.036 102.606L408.579 98.607ZM516.011 221.833L421.81 96.1095L409.806 105.104L504.007 230.828L516.011 221.833ZM688.151 3.16841L504.272 221.499L515.745 231.162L699.624 12.8311L688.151 3.16841Z" fill="#25B89D"/>
</svg>
