<svg width="1120" height="805" viewBox="0 0 1120 805" fill="none" xmlns="http://www.w3.org/2000/svg">
<mask id="mask0_3110_60849" style="mask-type:alpha" maskUnits="userSpaceOnUse" x="206" y="-268" width="992" height="1853">
<path d="M1168.21 1408.65C1168.09 1373.82 1167.44 1338.97 1166.82 1304.15C1165.77 1245.61 1167.11 1187.16 1170.04 1128.76C1170.73 1115.04 1171.04 1101.25 1170.95 1087.49C1170.37 989.841 1169.49 892.197 1169.01 794.554C1168.88 766.184 1170.02 737.804 1170.03 709.424C1170.03 690.514 1169.49 671.604 1169.01 652.703C1169.49 633.793 1170.03 614.883 1170.03 595.973C1170.03 567.593 1168.88 539.213 1169.01 510.843C1169.49 413.19 1170.36 315.546 1170.95 217.903C1171.04 204.15 1170.72 190.359 1170.04 176.635C1167.11 118.233 1165.78 59.7834 1166.82 1.24723C1167.45 -33.5864 1168.09 -68.42 1168.21 -103.254C1168.34 -138.951 1167.81 -174.64 1167.64 -210.338C1167.55 -229.546 1167.59 -248.754 1167.54 -267.962L1163.77 -267.962C1163.78 -215.754 1163.89 -163.547 1163.97 -111.331C1164 -91.9787 1164.01 -72.6359 1164 -53.2839C1163.93 4.78169 1163.39 62.8469 1163.91 120.903C1164.31 166.041 1166.11 211.151 1167.13 256.28C1167.46 270.898 1167.39 285.534 1167.27 300.161C1166.85 353.502 1166.21 406.832 1165.91 460.173C1165.69 500.173 1165.87 540.174 1165.86 580.184C1165.86 599.046 1165.84 617.908 1165.81 636.77C1165.81 640.055 1165.81 643.339 1165.81 646.614C1165.81 648.65 1165.81 650.687 1165.81 652.713C1165.81 654.749 1165.81 656.785 1165.81 658.812C1165.81 662.096 1165.81 665.38 1165.82 668.665C1165.83 687.527 1165.85 706.389 1165.85 725.252C1165.86 765.252 1165.68 805.262 1165.9 845.253C1166.2 898.594 1166.85 951.924 1167.26 1005.26C1167.38 1019.89 1167.45 1034.53 1167.12 1049.15C1166.58 1073.36 1167.25 1098.6 1166.75 1123.19C1165.79 1171.21 1163.59 1219.03 1163.71 1267.08C1163.77 1293.41 1163.91 1319.74 1163.96 1346.07C1163.97 1350.29 1163.98 1354.49 1163.98 1358.71C1164 1378.06 1163.98 1397.4 1163.95 1416.76C1163.88 1469.24 1163.77 1521.72 1163.76 1574.2C1163.76 1574.8 1163.78 1575.4 1163.79 1576L1167.51 1576C1167.57 1555.92 1167.52 1535.84 1167.62 1515.75C1167.81 1480.04 1168.34 1444.34 1168.21 1408.65Z" fill="#191919"/>
<path d="M1059.24 1537.79C1057.26 1454.35 1061.46 1371.01 1059.99 1287.63C1059.11 1237.2 1060.48 1187.08 1060.97 1136.67C1061.67 1064.76 1060.69 993.116 1058.61 921.355C1056.84 860.398 1058.91 799.385 1057.03 738.534C1056.78 730.553 1056.54 722.563 1056.72 714.582C1056.9 707.004 1057.46 699.456 1057.95 691.907C1060.19 657.083 1060.07 622.441 1060.13 587.56C1060.16 570.955 1058.59 554.09 1058.07 537.427C1057.54 520.284 1057.25 503.122 1057.17 485.959C1057 451.971 1057.61 417.982 1058.6 384.023C1060.68 312.272 1061.66 240.617 1060.96 168.712C1060.47 118.396 1057.16 68.0334 1058.04 17.747C1059.51 -65.6538 1059.18 -149.026 1061.16 -232.408C1061.44 -244.259 1061.32 -256.12 1061.25 -267.99L1057.22 -267.99C1057.22 -267.606 1057.21 -267.222 1057.2 -266.838C1056.62 -254.391 1058.09 -244.355 1057.83 -231.898C1057.33 -207.821 1057.04 -181.315 1056.55 -157.237C1055.02 -82.8739 1051.96 -8.45301 1054.12 65.8433C1057.27 174.262 1057.82 283.441 1054.75 397.286C1053.33 450.06 1054.57 503.045 1055.28 555.924C1055.49 571.924 1056.26 587.925 1056.77 603.867C1057.31 620.924 1055.9 638.461 1055.53 655.536C1055.1 672.449 1054.85 689.371 1054.57 706.284C1054.43 714.918 1054.3 723.542 1054.19 732.176C1054.06 741.223 1053.84 749.425 1054.48 758.597C1055.51 773.444 1054.65 788.273 1054.42 803.159C1054.15 820.312 1053.93 837.474 1053.93 854.626C1053.93 872.442 1054.15 890.267 1054.77 908.073C1058.65 1018.55 1057.78 1123.98 1056.33 1238.7C1055.36 1315.27 1055.05 1388.31 1056.58 1462.61C1057.08 1486.68 1054.38 1510.77 1054.89 1534.85C1055.13 1546.12 1055.59 1563.54 1056.1 1575.98L1059.33 1575.98C1059.37 1563.25 1059.54 1550.5 1059.24 1537.79Z" fill="#191919"/>
<path d="M1089.26 1335.07C1090.83 1245.61 1090.56 1156.17 1088.92 1066.7C1087.12 968.674 1086.52 870.598 1085.61 772.542C1085.37 746.323 1086.05 720.094 1085.99 693.875C1085.96 680.142 1085.58 666.408 1085.24 652.684C1085.58 638.95 1085.95 625.217 1085.99 611.493C1086.05 585.274 1085.37 559.045 1085.61 532.827C1086.52 434.77 1087.12 336.694 1088.92 238.667C1090.57 149.196 1090.83 59.7546 1089.26 -29.7063C1087.86 -109.122 1084.88 -188.517 1087.36 -267.99L1084.06 -267.99C1083.51 -259.231 1082.84 -250.483 1082.79 -241.724C1082.63 -209.464 1082.47 -177.195 1082.95 -144.945C1083.93 -78.7252 1086.4 -12.5055 1086.3 53.7042C1086.15 151.328 1084.21 248.943 1083.2 346.567C1082.63 402.482 1082.35 458.396 1082.02 514.32C1081.87 539.693 1081.99 565.058 1081.88 590.431C1081.79 608.352 1081.61 626.264 1081.47 644.185C1081.41 644.569 1081.36 644.963 1081.36 645.347C1081.37 647.796 1081.4 650.235 1081.41 652.684C1081.39 655.133 1081.37 657.572 1081.36 660.021C1081.36 660.406 1081.4 660.799 1081.47 661.184C1081.62 679.105 1081.8 697.016 1081.88 714.937C1081.99 740.311 1081.88 765.684 1082.02 791.049C1082.35 846.963 1082.63 902.887 1083.2 958.801C1084.21 1056.43 1086.14 1154.04 1086.3 1251.66C1086.39 1317.87 1083.93 1384.09 1082.95 1450.31C1082.47 1482.56 1082.64 1514.83 1082.79 1547.09C1082.84 1556.72 1083.66 1566.35 1084.21 1575.97L1087.08 1575.97C1087.26 1575.21 1087.39 1574.46 1087.37 1573.71C1084.87 1494.13 1087.86 1414.61 1089.26 1335.07Z" fill="#191919"/>
<path d="M1195.13 1405.25C1196.05 1342.03 1196.5 1278.8 1196.98 1215.55C1197.46 1151.89 1198 1088.21 1198 1024.55C1198 961.317 1197.41 898.085 1196.97 834.852C1196.55 774.126 1195.99 713.4 1195.49 652.684C1196 591.958 1196.55 531.242 1196.97 470.516C1197.41 407.284 1198 344.051 1198 280.819C1198 217.154 1197.46 153.48 1196.98 89.8152C1196.5 26.5827 1196.05 -36.6594 1195.13 -99.8823C1194.31 -155.893 1196.92 -211.961 1194.63 -267.99L1191.42 -267.99C1191.25 -230.006 1190.98 -192.014 1191.24 -154.03C1191.96 -51.6516 1193.35 50.727 1193.75 153.105C1194.09 239.992 1193.43 326.889 1193.21 413.776C1193.09 464.101 1192.93 514.426 1192.84 564.75C1192.81 581.529 1192.8 598.306 1192.82 615.084C1192.83 625.918 1193.14 636.771 1192.35 647.565C1191.72 656.19 1192.87 664.42 1192.85 673.121C1192.8 695.624 1192.8 718.126 1192.84 740.628C1192.93 790.952 1193.09 841.277 1193.21 891.602C1193.43 978.489 1194.1 1065.39 1193.75 1152.27C1193.35 1254.65 1191.95 1357.03 1191.24 1459.41C1190.97 1498.27 1191.26 1537.12 1191.43 1575.98L1194.51 1575.98C1197 1519.08 1194.3 1462.13 1195.13 1405.25Z" fill="#191919"/>
<path d="M1003.56 1408.65C1003.56 1378.31 1001.38 1347.63 1002.41 1317.36C1003.49 1285.82 1003.66 1254.28 1002.35 1222.73C1001.08 1191.67 1003.82 1159.95 1005.38 1128.75C1006.07 1115.03 1006.38 1101.24 1006.29 1087.48C1005.71 989.831 1004.83 892.188 1004.35 794.544C1004.22 766.174 1005.36 737.795 1005.37 709.415C1005.37 690.505 1004.83 671.594 1004.35 652.694C1004.83 633.784 1005.37 614.874 1005.37 595.963C1005.37 567.584 1004.22 539.204 1004.35 510.834C1004.83 413.181 1005.7 315.537 1006.29 217.894C1006.38 204.141 1006.06 190.349 1005.38 176.625C1002.45 118.223 1001.12 59.774 1002.16 1.23784C1002.79 -33.5957 1003.43 -68.4294 1003.56 -103.263C1003.68 -138.961 1003.15 -174.649 1002.99 -210.347C1002.9 -229.555 1002.94 -248.763 1002.89 -267.971L999.124 -267.971C999.134 -215.764 999.24 -163.557 999.317 -111.34C999.345 -91.988 999.365 -72.6457 999.345 -53.2937C999.278 4.77183 998.74 62.8375 999.259 120.893C999.662 166.032 1001.46 211.142 1002.48 256.271C1002.81 270.888 1002.74 285.525 1002.62 300.151C1002.2 353.492 1001.56 406.822 1001.26 460.163C1001.04 500.163 1001.22 540.164 1001.21 580.174C1001.21 599.036 1001.19 617.899 1001.16 636.761C1001.16 640.045 1001.16 643.33 1001.16 646.605C1001.16 648.641 1001.16 650.677 1001.16 652.703C1001.16 654.739 1001.16 656.775 1001.16 658.802C1001.16 662.086 1001.16 665.371 1001.17 668.656C1001.18 687.518 1001.2 706.38 1001.2 725.242C1001.21 765.243 1001.03 805.252 1001.25 845.243C1001.55 898.584 1002.2 951.915 1002.61 1005.26C1002.73 1019.88 1002.8 1034.52 1002.47 1049.14C1001.96 1071.95 1003.68 1094.76 1002.96 1117.73C1002.43 1134.66 1000.41 1151.49 999.086 1168.36C997.846 1184.13 999.124 1199.1 999.067 1214.8C998.951 1249.81 999.115 1284.83 999.239 1319.83C999.288 1332.79 999.316 1345.74 999.336 1358.7C999.355 1378.05 999.336 1397.39 999.307 1416.75C999.24 1469.23 999.134 1521.71 999.115 1574.19C999.115 1574.79 999.143 1575.39 999.153 1575.99L1002.87 1575.99C1002.93 1555.91 1002.88 1535.83 1002.98 1515.74C1003.15 1480.04 1003.69 1444.34 1003.56 1408.65Z" fill="#191919"/>
<path d="M1142.55 1322.98C1142.74 1247.28 1145.07 1171.6 1145.22 1095.9C1145.33 1035.26 1143.6 974.619 1142.66 913.979C1142.04 874.843 1141.02 835.707 1140.83 796.571C1140.68 763.024 1141.8 729.477 1141.75 695.931C1141.72 681.515 1140.83 667.109 1140.06 652.694C1140.83 638.288 1141.73 623.872 1141.75 609.457C1141.8 575.91 1140.69 542.363 1140.83 508.817C1141.01 469.681 1142.04 430.544 1142.66 391.408C1143.6 330.769 1145.33 270.129 1145.22 209.49C1145.07 133.792 1142.74 58.1026 1142.55 -17.5959C1142.35 -101.054 1143.42 -184.513 1143.98 -267.981L1140.35 -267.981C1139.69 -199.264 1138.65 -130.538 1138.78 -61.8219C1138.88 0.536606 1140.41 62.895 1141.28 125.263C1142.53 214.33 1140.74 303.34 1138.94 392.369C1137.96 440.955 1137.1 489.57 1137.14 538.176C1137.16 561.398 1137.98 584.601 1138.05 607.824C1138.09 620.05 1137.4 632.42 1136.5 644.578C1135.07 663.921 1138.19 683.887 1138.04 703.345C1137.87 724.646 1137.16 745.929 1137.14 767.23C1137.09 815.836 1137.96 864.442 1138.94 913.038C1140.74 1002.06 1142.53 1091.08 1141.28 1180.14C1140.41 1242.5 1138.89 1304.86 1138.78 1367.23C1138.66 1436.82 1139.72 1506.41 1140.38 1576L1144 1576C1143.45 1491.64 1142.35 1407.31 1142.55 1322.98Z" fill="#191919"/>
<path d="M1116.31 1489.62C1116.59 1391.57 1117.8 1293.52 1117.52 1195.47C1117.31 1126.68 1114.98 1057.9 1114.12 989.111C1113.31 922.901 1112.96 856.672 1112.85 790.453C1112.83 768.546 1114.68 746.64 1114.81 724.733C1114.96 700.723 1114.27 676.704 1113.83 652.694C1114.28 628.684 1114.97 604.664 1114.81 580.654C1114.68 558.738 1112.83 536.841 1112.85 514.935C1112.95 448.715 1113.3 382.486 1114.12 316.276C1114.97 247.483 1117.31 178.709 1117.52 109.916C1117.8 11.8691 1116.59 -86.1776 1116.31 -184.234C1116.24 -212.143 1117.16 -240.062 1117.56 -267.981L1113.8 -267.981C1113.77 -266.905 1113.74 -265.829 1113.73 -264.744C1113.55 -214.448 1113.34 -164.142 1113.32 -113.847C1113.29 -60.9479 1113.58 -8.04951 1113.46 44.8491C1113.34 94.7321 1113.19 144.615 1112.48 194.489C1111.55 259.844 1109.6 325.179 1108.95 390.544C1108.47 439.111 1109.19 487.717 1109.71 536.294C1110.01 564.664 1111.14 593.015 1111.53 621.385C1111.65 630.509 1111.03 639.651 1110.66 648.804C1110.53 649.399 1110.45 649.956 1110.46 650.504C1110.48 651.234 1110.5 651.964 1110.53 652.694C1110.51 653.424 1110.48 654.153 1110.46 654.883C1110.45 655.431 1110.53 655.988 1110.66 656.583C1111.03 665.726 1111.65 674.869 1111.53 684.003C1111.14 712.373 1110.02 740.723 1109.71 769.094C1109.19 817.67 1108.47 866.276 1108.95 914.844C1109.6 980.208 1111.55 1045.53 1112.48 1110.9C1113.19 1160.77 1113.34 1210.66 1113.46 1260.54C1113.58 1313.44 1113.28 1366.34 1113.32 1419.23C1113.34 1469.53 1113.54 1519.84 1113.73 1570.13C1113.74 1572.08 1113.81 1574.03 1113.89 1575.98L1117.57 1575.98C1117.58 1575.14 1117.58 1574.3 1117.57 1573.45C1117.16 1545.51 1116.24 1517.56 1116.31 1489.62Z" fill="#191919"/>
<path d="M977.903 1322.98C978.085 1247.28 980.421 1171.6 980.565 1095.9C980.68 1035.26 978.95 974.619 978.008 913.979C977.393 874.843 976.365 835.707 976.182 796.571C976.028 763.024 977.153 729.477 977.095 695.931C977.076 681.515 976.182 667.109 975.413 652.694C976.182 638.288 977.076 623.872 977.095 609.457C977.153 575.91 976.038 542.363 976.182 508.817C976.355 469.681 977.393 430.544 978.008 391.408C978.95 330.769 980.68 270.129 980.565 209.49C980.421 133.792 978.085 58.1026 977.903 -17.5959C977.701 -101.054 978.768 -184.513 979.325 -267.981L975.702 -267.981C975.039 -199.264 974.001 -130.538 974.126 -61.8219C974.231 0.536596 975.759 62.8949 976.634 125.263C977.884 214.33 976.086 303.34 974.289 392.369C973.309 440.955 972.453 489.57 972.492 538.176C972.52 571.809 974.26 605.606 973.145 639.181C973.001 643.609 972.53 648.007 972.482 652.454C972.395 660.559 973.039 668.665 973.222 676.761C973.414 685.376 973.433 693.991 973.366 702.605C973.241 719.844 972.761 737.074 972.568 754.304C972.52 758.616 972.492 762.918 972.482 767.23C972.434 815.836 973.299 864.442 974.279 913.038C976.077 1002.06 977.874 1091.08 976.624 1180.14C975.75 1242.5 974.231 1304.86 974.116 1367.23C974.001 1436.82 975.058 1506.41 975.721 1576L979.344 1576C978.787 1491.64 977.701 1407.31 977.903 1322.98Z" fill="#191919"/>
<path d="M951.664 1489.62C951.943 1391.57 953.144 1293.52 952.865 1195.47C952.663 1126.68 950.328 1057.9 949.473 989.111C948.656 922.901 948.31 856.672 948.204 790.453C948.175 768.546 950.03 746.64 950.165 724.733C950.309 700.723 949.617 676.704 949.175 652.694C949.617 628.684 950.309 604.664 950.165 580.654C950.03 558.738 948.175 536.841 948.204 514.935C948.3 448.715 948.646 382.486 949.473 316.276C950.318 247.483 952.663 178.709 952.865 109.916C953.154 11.8691 951.952 -86.1776 951.664 -184.234C951.587 -212.143 952.51 -240.062 952.913 -267.981L949.146 -267.981C949.117 -266.905 949.088 -265.829 949.079 -264.744C948.896 -214.448 948.694 -164.143 948.665 -113.847C948.636 -60.9479 948.934 -8.04952 948.809 44.8491C948.694 94.7321 948.54 144.615 947.829 194.489C946.897 259.844 944.946 325.179 944.302 390.544C943.821 439.111 944.542 487.717 945.061 536.294C945.359 564.664 946.493 593.015 946.878 621.385C946.964 627.512 946.705 633.63 946.426 639.748C946.099 646.903 945.868 653.549 946.195 660.694C946.551 668.454 946.983 676.224 946.878 684.003C946.493 712.373 945.369 740.723 945.061 769.094C944.542 817.67 943.821 866.276 944.302 914.844C944.946 980.208 946.897 1045.53 947.829 1110.9C948.54 1160.77 948.694 1210.66 948.809 1260.54C948.934 1313.44 948.627 1366.34 948.665 1419.23C948.694 1469.53 948.886 1519.84 949.078 1570.13C949.088 1572.08 949.155 1574.03 949.242 1575.98L952.923 1575.98C952.933 1575.14 952.933 1574.3 952.923 1573.45C952.51 1545.51 951.587 1517.56 951.664 1489.62Z" fill="#191919"/>
<path d="M924.608 1335.07C926.175 1245.61 925.906 1156.17 924.272 1066.7C922.475 968.674 921.869 870.598 920.956 772.542C920.716 746.323 921.398 720.094 921.341 693.875C921.312 680.142 920.927 666.408 920.591 652.684C920.927 638.95 921.302 625.217 921.341 611.493C921.398 585.274 920.716 559.045 920.956 532.827C921.869 434.77 922.475 336.694 924.272 238.667C925.916 149.196 926.175 59.7546 924.608 -29.7063C923.215 -109.122 920.226 -188.517 922.706 -267.99L919.409 -267.99C918.861 -259.231 918.188 -250.483 918.14 -241.724C917.977 -209.464 917.823 -177.195 918.303 -144.945C919.284 -78.7252 921.754 -12.5056 921.648 53.7042C921.504 151.328 919.563 248.943 918.553 346.567C917.977 402.482 917.698 458.396 917.371 514.32C917.217 539.693 917.342 565.058 917.227 590.431C917.169 602.84 917.064 615.238 916.958 627.647C916.9 634.946 917.025 642.254 917.15 649.553C917.265 656.362 916.833 662.999 916.891 669.741C917.016 684.809 917.16 699.868 917.227 714.937C917.342 740.311 917.227 765.684 917.371 791.049C917.698 846.963 917.977 902.887 918.553 958.801C919.562 1056.43 921.494 1154.04 921.648 1251.66C921.744 1317.87 919.284 1384.09 918.303 1450.31C917.823 1482.56 917.986 1514.83 918.14 1547.09C918.188 1556.72 919.005 1566.35 919.563 1575.97L922.427 1575.97C922.609 1575.21 922.734 1574.46 922.715 1573.71C920.216 1494.13 923.215 1414.61 924.608 1335.07Z" fill="#191919"/>
<path d="M1030.48 1405.25C1031.4 1342.03 1031.85 1278.8 1032.33 1215.55C1032.81 1151.89 1033.35 1088.21 1033.35 1024.55C1033.35 961.317 1032.76 898.085 1032.32 834.852C1031.9 774.126 1031.34 713.4 1030.84 652.684C1031.35 591.958 1031.9 531.242 1032.32 470.516C1032.76 407.284 1033.35 344.051 1033.35 280.819C1033.35 217.154 1032.81 153.48 1032.33 89.8152C1031.85 26.5827 1031.4 -36.6594 1030.48 -99.8823C1029.66 -155.893 1032.27 -211.961 1029.98 -267.99L1026.77 -267.99C1026.6 -230.006 1026.33 -192.014 1026.59 -154.03C1027.31 -51.6516 1028.7 50.727 1029.1 153.105C1029.44 239.992 1028.78 326.889 1028.56 413.776C1028.44 464.101 1028.28 514.426 1028.19 564.75C1028.14 592.275 1028.15 619.8 1028.24 647.325C1028.25 649.112 1028.34 650.907 1028.46 652.694C1028.34 654.48 1028.24 656.276 1028.24 658.062C1028.15 685.587 1028.14 713.112 1028.19 740.637C1028.28 790.962 1028.44 841.287 1028.56 891.612C1028.78 978.499 1029.45 1065.4 1029.1 1152.28C1028.7 1254.66 1027.3 1357.04 1026.59 1459.42C1026.32 1498.27 1026.61 1537.13 1026.78 1575.99L1029.86 1575.99C1032.35 1519.08 1029.64 1462.13 1030.48 1405.25Z" fill="#191919"/>
<path d="M650.371 1416.74C650.342 1397.38 650.323 1378.04 650.342 1358.69C650.409 1300.63 650.948 1242.56 650.429 1184.5C650.025 1139.36 648.228 1094.25 647.209 1049.13C646.882 1034.51 646.949 1019.87 647.065 1005.25C647.487 951.905 648.131 898.574 648.429 845.234C648.65 805.233 648.468 765.233 648.477 725.223C648.477 706.361 648.497 687.499 648.526 668.636C648.526 665.352 648.526 662.067 648.526 658.792C648.526 656.756 648.526 654.72 648.526 652.694C648.526 650.658 648.526 648.622 648.526 646.595C648.526 643.311 648.526 640.026 648.516 636.742C648.506 617.88 648.487 599.017 648.487 580.155C648.477 540.154 648.66 500.144 648.439 460.153C648.141 406.813 647.488 353.482 647.074 300.142C646.959 285.515 646.892 270.878 647.218 256.261C647.766 232.049 647.084 206.811 647.584 182.215C648.545 134.195 650.746 86.3766 650.63 38.328C650.563 11.9939 650.429 -14.3306 650.38 -40.6646C650.371 -44.8808 650.361 -49.087 650.361 -53.3031C650.342 -72.6551 650.361 -91.9979 650.39 -111.35C650.457 -163.557 650.563 -215.764 650.582 -267.981L646.815 -267.981C646.767 -248.773 646.805 -229.565 646.719 -210.357C646.555 -174.659 646.017 -138.961 646.152 -103.273C646.276 -68.4392 646.93 -33.596 647.545 1.22797C648.593 59.7641 647.257 118.214 644.325 176.616C643.633 190.34 643.326 204.131 643.412 217.884C643.999 315.537 644.873 413.18 645.354 510.824C645.488 539.194 644.345 567.574 644.335 595.953C644.335 614.864 644.873 633.774 645.354 652.675C644.873 671.585 644.335 690.495 644.335 709.405C644.335 737.785 645.488 766.165 645.354 794.535C644.873 892.188 644.008 989.831 643.412 1087.47C643.326 1101.23 643.643 1115.02 644.325 1128.74C647.257 1187.14 648.583 1245.59 647.545 1304.13C646.92 1338.96 646.276 1373.8 646.151 1408.63C646.026 1444.32 646.555 1480.02 646.719 1515.72C646.815 1535.8 646.767 1555.88 646.824 1575.96L650.544 1575.96C650.553 1575.37 650.582 1574.76 650.582 1574.17C650.544 1521.7 650.438 1469.21 650.371 1416.74Z" fill="#191919"/>
<path d="M757.133 1572.21C757.709 1559.76 756.239 1549.72 756.498 1537.27C756.998 1513.19 757.286 1486.68 757.776 1462.61C759.305 1388.24 762.371 1313.82 760.208 1239.52C757.056 1131.11 756.508 1021.93 759.574 908.082C760.996 855.309 759.756 802.323 759.045 749.444C758.834 733.444 758.065 717.444 757.555 701.501C757.017 684.444 758.43 666.908 758.795 649.832C759.228 632.919 759.478 615.997 759.756 599.085C759.901 590.451 760.026 581.826 760.141 573.192C760.266 564.145 760.497 555.943 759.853 546.772C758.815 531.924 759.68 517.095 759.91 502.209C760.179 485.057 760.4 467.894 760.4 450.741C760.4 432.926 760.179 415.101 759.555 397.295C755.681 286.821 756.546 181.389 757.998 66.6695C758.968 -9.90289 759.276 -82.9412 757.748 -157.237C757.248 -181.315 759.949 -205.402 759.439 -229.479C759.218 -239.985 758.805 -255.822 758.334 -268L754.98 -268C754.912 -256.139 754.778 -244.269 755.066 -232.427C757.046 -148.988 752.846 -65.6539 754.317 17.7278C755.201 68.1582 753.826 118.281 753.336 168.692C752.635 240.597 753.615 312.243 755.701 384.004C757.469 444.96 755.403 505.974 757.277 566.825C757.527 574.805 757.767 582.796 757.584 590.777C757.411 598.354 756.844 605.903 756.364 613.452C754.115 648.276 754.24 682.917 754.182 717.799C754.153 734.404 755.72 751.269 756.239 767.931C756.767 785.075 757.056 802.237 757.142 819.399C757.306 853.388 756.7 887.376 755.71 921.336C753.625 993.096 752.644 1064.74 753.346 1136.65C753.836 1186.96 757.152 1237.33 756.268 1287.61C754.797 1371.01 755.124 1454.38 753.144 1537.77C752.846 1550.48 753.019 1563.23 753.077 1575.96L757.133 1575.96C757.104 1574.72 757.075 1573.46 757.133 1572.21Z" fill="#191919"/>
<path d="M731.384 1450.31C730.404 1384.09 727.934 1317.87 728.039 1251.66C728.183 1154.04 730.125 1056.43 731.134 958.801C731.711 902.887 731.99 846.972 732.316 791.049C732.47 765.675 732.345 740.311 732.46 714.937C732.547 697.016 732.73 679.104 732.864 661.183C732.931 660.799 732.98 660.406 732.98 660.021C732.97 657.572 732.941 655.133 732.931 652.684C732.951 650.235 732.97 647.796 732.98 645.347C732.98 644.963 732.941 644.569 732.864 644.185C732.72 626.264 732.537 608.352 732.46 590.431C732.345 565.057 732.46 539.684 732.316 514.32C731.99 458.405 731.711 402.482 731.134 346.567C730.125 248.943 728.193 151.328 728.039 53.7042C727.943 -12.5056 730.404 -78.7252 731.384 -144.945C731.865 -177.195 731.701 -209.464 731.548 -241.724C731.499 -250.483 730.827 -259.231 730.279 -267.99L726.982 -267.99C729.462 -188.517 726.473 -109.122 725.079 -29.7064C723.512 59.7546 723.782 149.196 725.416 238.667C727.213 336.694 727.818 434.77 728.731 532.827C728.972 559.045 728.289 585.274 728.347 611.493C728.376 625.227 728.76 638.96 729.097 652.684C728.76 666.418 728.385 680.151 728.347 693.875C728.289 720.094 728.972 746.323 728.731 772.542C727.818 870.598 727.213 968.674 725.415 1066.7C723.772 1156.17 723.512 1245.61 725.079 1335.07C726.473 1414.61 729.471 1494.12 726.972 1573.71C726.953 1574.46 727.078 1575.21 727.261 1575.97L730.125 1575.97C730.682 1566.35 731.499 1556.72 731.547 1547.09C731.701 1514.83 731.865 1482.56 731.384 1450.31Z" fill="#191919"/>
<path d="M623.104 1459.41C622.383 1357.03 620.999 1254.65 620.595 1152.27C620.259 1065.39 620.912 978.489 621.134 891.602C621.259 841.277 621.422 790.952 621.508 740.628C621.537 723.85 621.547 707.071 621.528 690.293C621.518 679.46 621.21 668.608 621.998 657.813C622.623 649.188 621.48 640.957 621.499 632.256C621.547 609.754 621.547 587.252 621.508 564.75C621.412 514.426 621.259 464.101 621.134 413.776C620.913 326.889 620.249 239.992 620.595 153.105C620.999 50.7269 622.393 -51.6516 623.104 -154.03C623.373 -192.014 623.104 -230.007 622.931 -267.99L619.721 -267.99C617.424 -211.961 620.038 -155.883 619.221 -99.8824C618.298 -36.6595 617.847 26.5827 617.366 89.8152C616.885 153.48 616.347 217.154 616.347 280.819C616.347 344.051 616.933 407.284 617.376 470.516C617.798 531.242 618.356 591.968 618.856 652.684C618.346 713.41 617.798 774.126 617.376 834.852C616.933 898.085 616.347 961.317 616.347 1024.55C616.347 1088.21 616.885 1151.89 617.366 1215.55C617.846 1278.79 618.298 1342.03 619.221 1405.25C620.047 1462.13 617.347 1519.08 619.846 1575.97L622.931 1575.97C623.085 1537.12 623.373 1498.26 623.104 1459.41Z" fill="#191919"/>
<path d="M815.021 1416.74C814.992 1397.38 814.973 1378.04 814.992 1358.69C815.059 1300.63 815.598 1242.56 815.079 1184.5C814.675 1139.36 812.878 1094.26 811.859 1049.13C811.532 1034.51 811.599 1019.87 811.715 1005.25C812.138 951.905 812.782 898.574 813.08 845.234C813.301 805.233 813.118 765.233 813.128 725.223C813.128 706.361 813.147 687.499 813.176 668.636C813.176 665.352 813.176 662.067 813.176 658.792C813.176 656.756 813.176 654.72 813.176 652.694C813.176 650.658 813.176 648.622 813.176 646.595C813.176 643.311 813.176 640.026 813.166 636.742C813.156 617.88 813.137 599.017 813.137 580.155C813.128 540.154 813.31 500.144 813.089 460.153C812.791 406.813 812.138 353.482 811.724 300.142C811.609 285.515 811.542 270.878 811.869 256.261C812.378 233.452 810.658 210.633 811.378 187.67C811.907 170.738 813.925 153.912 815.252 137.038C816.492 121.278 815.213 106.295 815.271 90.5927C815.386 55.5862 815.223 20.5703 815.098 -14.4361C815.05 -27.3919 815.021 -40.3474 815.002 -53.3031C814.983 -72.6551 815.002 -91.9979 815.031 -111.35C815.098 -163.557 815.204 -215.764 815.223 -267.981L811.455 -267.981C811.407 -248.773 811.446 -229.565 811.359 -210.357C811.196 -174.659 810.658 -138.961 810.792 -103.273C810.792 -72.9339 812.974 -42.2489 811.945 -11.9869C810.869 19.5622 810.696 51.1012 812.003 82.6502C813.281 113.709 810.533 145.431 808.976 176.625C808.284 190.349 807.976 204.141 808.063 217.894C808.649 315.547 809.524 413.19 810.004 510.834C810.139 539.204 808.995 567.584 808.985 595.963C808.985 614.874 809.524 633.783 810.004 652.684C809.524 671.594 808.985 690.505 808.985 709.415C808.985 737.795 810.139 766.174 810.004 794.544C809.523 892.197 808.658 989.841 808.063 1087.48C807.976 1101.24 808.293 1115.03 808.976 1128.75C811.907 1187.15 813.233 1245.6 812.195 1304.14C811.571 1338.97 810.927 1373.81 810.802 1408.64C810.677 1444.33 811.205 1480.03 811.369 1515.72C811.465 1535.81 811.417 1555.89 811.474 1575.97L815.194 1575.97C815.204 1575.38 815.232 1574.77 815.232 1574.17C815.204 1521.7 815.088 1469.21 815.021 1416.74Z" fill="#191919"/>
<path d="M673.073 1180.12C671.823 1091.06 673.621 1002.05 675.418 913.019C676.398 864.432 677.254 815.817 677.215 767.211C677.196 743.989 676.379 720.786 676.302 697.563C676.264 685.337 676.956 672.967 677.859 660.809C679.291 641.466 676.168 621.5 676.321 602.042C676.485 580.741 677.196 559.458 677.215 538.157C677.263 489.561 676.398 440.945 675.418 392.349C673.621 303.33 671.823 214.311 673.073 125.244C673.947 62.8853 675.466 0.526958 675.581 -61.8412C675.697 -130.558 674.668 -199.284 674.005 -268L670.382 -268C670.939 -184.542 672.006 -101.074 671.804 -17.6151C671.621 58.0833 669.286 133.772 669.142 209.471C669.026 270.11 670.756 330.75 671.698 391.389C672.313 430.525 673.342 469.661 673.525 508.797C673.678 542.344 672.554 575.891 672.611 609.437C672.64 623.853 673.524 638.259 674.293 652.675C673.524 667.08 672.631 681.496 672.611 695.912C672.554 729.458 673.669 763.005 673.524 796.552C673.351 835.688 672.313 874.824 671.698 913.96C670.756 974.599 669.026 1035.24 669.142 1095.88C669.286 1171.58 671.621 1247.27 671.804 1322.96C672.006 1407.3 670.92 1491.63 670.362 1575.96L673.986 1575.96C674.649 1506.37 675.706 1436.78 675.591 1367.19C675.466 1304.84 673.938 1242.48 673.073 1180.12Z" fill="#191919"/>
<path d="M701.022 1419.23C701.051 1366.34 700.753 1313.44 700.878 1260.54C700.993 1210.66 701.147 1160.77 701.858 1110.9C702.791 1045.54 704.742 980.208 705.386 914.844C705.866 866.276 705.145 817.67 704.626 769.094C704.328 740.723 703.194 712.373 702.81 684.003C702.685 674.879 703.31 665.736 703.675 656.583C703.809 655.988 703.886 655.431 703.877 654.883C703.857 654.153 703.838 653.424 703.809 652.694C703.829 651.964 703.857 651.234 703.877 650.504C703.886 649.956 703.809 649.399 703.675 648.804C703.31 639.661 702.685 630.518 702.81 621.385C703.194 593.015 704.319 564.664 704.626 536.294C705.145 487.717 705.866 439.111 705.386 390.544C704.742 325.179 702.791 259.853 701.858 194.489C701.147 144.615 700.993 94.7321 700.878 44.8491C700.753 -8.04953 701.051 -60.9479 701.022 -113.847C700.993 -164.143 700.801 -214.448 700.609 -264.744C700.609 -265.82 700.57 -266.896 700.542 -267.981L696.774 -267.981C697.178 -240.062 698.1 -212.143 698.024 -184.234C697.745 -86.1872 696.534 11.8691 696.822 109.916C697.024 178.709 699.359 247.483 700.215 316.276C701.032 382.486 701.378 448.715 701.484 514.935C701.512 536.841 699.657 558.748 699.523 580.654C699.379 604.664 700.071 628.684 700.503 652.694C700.061 676.704 699.369 700.723 699.523 724.733C699.657 746.649 701.512 768.546 701.483 790.453C701.387 856.672 701.041 922.901 700.215 989.111C699.369 1057.9 697.024 1126.68 696.822 1195.47C696.534 1293.52 697.735 1391.57 698.023 1489.62C698.1 1517.56 697.178 1545.51 696.774 1573.45C696.764 1574.3 696.764 1575.14 696.774 1575.98L700.455 1575.98C700.541 1574.03 700.609 1572.08 700.618 1570.13C700.791 1519.83 700.993 1469.53 701.022 1419.23Z" fill="#191919"/>
<path d="M837.723 1180.12C836.473 1091.06 838.271 1002.05 840.068 913.019C841.048 864.432 841.913 815.817 841.865 767.211C841.836 733.578 840.097 699.782 841.212 666.206C841.356 661.779 841.827 657.38 841.875 652.934C841.961 644.828 841.317 636.722 841.135 628.626C840.943 620.011 840.923 611.396 840.991 602.782C841.116 585.543 841.596 568.313 841.788 551.084C841.836 546.771 841.865 542.469 841.875 538.157C841.923 489.561 841.058 440.945 840.078 392.349C838.28 303.33 836.483 214.311 837.732 125.244C838.607 62.8853 840.126 0.526968 840.241 -61.8412C840.356 -130.558 839.328 -199.284 838.665 -268L835.041 -268C835.599 -184.542 836.666 -101.074 836.464 -17.6151C836.281 58.0833 833.946 133.772 833.802 209.471C833.686 270.11 835.416 330.75 836.358 391.389C836.973 430.525 838.002 469.661 838.184 508.797C838.338 542.344 837.213 575.891 837.271 609.437C837.29 623.853 838.184 638.259 838.953 652.675C838.184 667.08 837.29 681.496 837.271 695.912C837.213 729.458 838.328 763.005 838.184 796.552C838.011 835.688 836.973 874.824 836.358 913.96C835.416 974.599 833.686 1035.24 833.801 1095.88C833.946 1171.58 836.281 1247.27 836.464 1322.96C836.665 1407.3 835.579 1491.63 835.022 1575.96L838.645 1575.96C839.309 1506.37 840.375 1436.78 840.251 1367.19C840.116 1304.84 838.597 1242.48 837.723 1180.12Z" fill="#191919"/>
<path d="M865.672 1419.23C865.701 1366.34 865.403 1313.44 865.528 1260.54C865.643 1210.66 865.797 1160.77 866.508 1110.9C867.441 1045.54 869.392 980.208 870.036 914.844C870.516 866.276 869.795 817.67 869.276 769.094C868.979 740.723 867.844 712.373 867.46 684.003C867.373 677.875 867.633 671.758 867.912 665.64C868.239 658.485 868.469 651.839 868.142 644.694C867.787 636.934 867.354 629.164 867.46 621.385C867.844 593.015 868.969 564.664 869.276 536.294C869.795 487.717 870.516 439.111 870.036 390.544C869.392 325.179 867.441 259.853 866.508 194.489C865.797 144.615 865.643 94.7321 865.528 44.8491C865.403 -8.04952 865.711 -60.9479 865.672 -113.847C865.643 -164.143 865.451 -214.448 865.259 -264.744C865.259 -265.82 865.221 -266.896 865.192 -267.981L861.424 -267.981C861.828 -240.062 862.75 -212.143 862.674 -184.234C862.395 -86.1872 861.184 11.8691 861.472 109.916C861.674 178.709 864.01 247.483 864.865 316.276C865.682 382.486 866.028 448.715 866.134 514.935C866.162 536.841 864.308 558.748 864.173 580.654C864.029 604.664 864.721 628.684 865.163 652.694C864.721 676.704 864.029 700.723 864.173 724.733C864.308 746.649 866.162 768.546 866.134 790.453C866.037 856.672 865.691 922.901 864.865 989.111C864.019 1057.9 861.674 1126.68 861.472 1195.47C861.184 1293.52 862.385 1391.57 862.674 1489.62C862.75 1517.56 861.828 1545.51 861.424 1573.45C861.414 1574.3 861.414 1575.14 861.424 1575.98L865.105 1575.98C865.192 1574.03 865.259 1572.08 865.269 1570.13C865.451 1519.83 865.643 1469.53 865.672 1419.23Z" fill="#191919"/>
<path d="M896.034 1450.31C895.054 1384.09 892.584 1317.87 892.689 1251.66C892.834 1154.04 894.775 1056.43 895.784 958.801C896.361 902.887 896.64 846.972 896.966 791.049C897.12 765.675 896.995 740.311 897.111 714.937C897.168 702.529 897.274 690.13 897.38 677.722C897.447 670.423 897.312 663.114 897.187 655.815C897.072 649.006 897.505 642.369 897.447 635.627C897.322 620.559 897.178 605.5 897.111 590.431C896.995 565.058 897.111 539.684 896.966 514.32C896.64 458.405 896.361 402.482 895.784 346.567C894.775 248.943 892.843 151.328 892.689 53.7042C892.593 -12.5056 895.054 -78.7252 896.034 -144.945C896.515 -177.195 896.351 -209.464 896.198 -241.724C896.149 -250.483 895.477 -259.231 894.929 -267.99L891.632 -267.99C894.112 -188.517 891.123 -109.122 889.729 -29.7063C888.163 59.7546 888.432 149.196 890.066 238.667C891.863 336.694 892.468 434.77 893.381 532.827C893.622 559.045 892.939 585.274 892.997 611.493C893.026 625.227 893.41 638.96 893.747 652.684C893.41 666.418 893.035 680.151 892.997 693.875C892.939 720.094 893.622 746.323 893.381 772.542C892.468 870.598 891.863 968.674 890.065 1066.7C888.422 1156.17 888.162 1245.61 889.729 1335.07C891.123 1414.61 894.121 1494.12 891.622 1573.71C891.603 1574.46 891.728 1575.21 891.911 1575.97L894.775 1575.97C895.332 1566.35 896.149 1556.72 896.197 1547.09C896.361 1514.83 896.515 1482.56 896.034 1450.31Z" fill="#191919"/>
<path d="M787.754 1459.41C787.033 1357.03 785.649 1254.65 785.245 1152.27C784.909 1065.39 785.563 978.489 785.784 891.602C785.909 841.277 786.072 790.952 786.158 740.628C786.207 713.103 786.197 685.578 786.11 658.053C786.101 656.266 786.005 654.47 785.889 652.684C786.014 650.898 786.11 649.102 786.11 647.315C786.197 619.79 786.207 592.266 786.159 564.741C786.062 514.416 785.909 464.091 785.784 413.766C785.563 326.879 784.9 239.982 785.246 153.095C785.649 50.7171 787.043 -51.661 787.754 -154.039C788.023 -192.023 787.754 -230.016 787.581 -268L784.371 -268C782.074 -211.97 784.688 -155.893 783.871 -99.8922C782.948 -36.6693 782.497 26.5728 782.016 89.8053C781.536 153.47 780.997 217.144 780.997 280.809C780.997 344.041 781.584 407.274 782.026 470.506C782.449 531.232 783.006 591.958 783.506 652.675C782.996 713.4 782.449 774.117 782.026 834.843C781.583 898.075 780.997 961.308 780.997 1024.54C780.997 1088.2 781.536 1151.88 782.016 1215.54C782.497 1278.78 782.948 1342.02 783.871 1405.24C784.698 1462.12 781.997 1519.07 784.496 1575.96L787.581 1575.96C787.735 1537.12 788.023 1498.26 787.754 1459.41Z" fill="#191919"/>
<path d="M566.167 1408.65C566.042 1373.82 565.388 1338.97 564.773 1304.15C563.726 1245.61 565.062 1187.16 567.993 1128.76C568.685 1115.04 568.993 1101.25 568.906 1087.49C568.32 989.841 567.445 892.197 566.965 794.554C566.83 766.184 567.974 737.804 567.983 709.424C567.983 690.514 567.445 671.604 566.965 652.703C567.445 633.793 567.983 614.883 567.983 595.973C567.983 567.593 566.83 539.213 566.965 510.843C567.445 413.19 568.31 315.546 568.906 217.903C568.993 204.15 568.675 190.359 567.993 176.635C565.062 118.233 563.735 59.7834 564.773 1.24719C565.398 -33.5864 566.042 -68.42 566.167 -103.254C566.292 -138.952 565.763 -174.64 565.59 -210.338C565.504 -229.546 565.542 -248.754 565.494 -267.962L561.727 -267.962C561.736 -215.754 561.842 -163.547 561.919 -111.331C561.948 -91.9787 561.967 -72.6359 561.948 -53.2839C561.88 4.78165 561.342 62.8469 561.861 120.903C562.265 166.041 564.062 211.151 565.081 256.28C565.408 270.898 565.34 285.534 565.225 300.161C564.802 353.502 564.158 406.832 563.86 460.173C563.639 500.173 563.822 540.174 563.812 580.184C563.812 599.046 563.793 617.908 563.764 636.77C563.764 640.055 563.764 643.339 563.764 646.614C563.764 648.65 563.764 650.687 563.764 652.713C563.764 654.749 563.764 656.785 563.764 658.812C563.764 662.096 563.764 665.38 563.774 668.665C563.783 687.527 563.803 706.389 563.803 725.251C563.812 765.252 563.629 805.262 563.851 845.253C564.148 898.594 564.802 951.924 565.215 1005.26C565.331 1019.89 565.398 1034.53 565.071 1049.15C564.533 1073.36 565.206 1098.6 564.706 1123.19C563.745 1171.21 561.544 1219.03 561.659 1267.08C561.727 1293.41 561.861 1319.74 561.909 1346.07C561.919 1350.29 561.928 1354.49 561.928 1358.71C561.947 1378.06 561.928 1397.4 561.9 1416.76C561.832 1469.24 561.726 1521.72 561.707 1574.2C561.707 1574.8 561.736 1575.4 561.746 1576L565.465 1576C565.523 1555.92 565.475 1535.84 565.571 1515.75C565.754 1480.04 566.292 1444.34 566.167 1408.65Z" fill="#191919"/>
<path d="M457.195 1537.79C455.215 1454.35 459.415 1371.01 457.944 1287.63C457.06 1237.2 458.434 1187.08 458.925 1136.67C459.626 1064.76 458.646 993.116 456.56 921.355C454.792 860.398 456.858 799.385 454.984 738.534C454.734 730.553 454.494 722.563 454.677 714.582C454.85 707.004 455.417 699.456 455.897 691.907C458.146 657.083 458.021 622.441 458.079 587.56C458.108 570.955 456.541 554.09 456.022 537.427C455.493 520.284 455.205 503.122 455.119 485.959C454.955 451.971 455.561 417.982 456.551 384.023C458.636 312.272 459.617 240.617 458.915 168.712C458.425 118.396 455.109 68.0333 455.993 17.747C457.454 -65.6539 457.137 -149.026 459.117 -232.408C459.396 -244.259 459.271 -256.12 459.204 -267.99L455.176 -267.99C455.176 -267.606 455.167 -267.222 455.148 -266.838C454.571 -254.391 456.041 -244.355 455.782 -231.898C455.282 -207.821 454.994 -181.315 454.503 -157.237C452.975 -82.874 449.909 -8.45305 452.072 65.8432C455.224 174.262 455.772 283.441 452.706 397.286C451.284 450.06 452.524 503.045 453.235 555.924C453.446 571.924 454.215 587.925 454.715 603.867C455.253 620.924 453.84 638.461 453.475 655.536C453.043 672.449 452.793 689.371 452.514 706.284C452.37 714.918 452.245 723.542 452.129 732.176C452.005 741.223 451.784 749.425 452.427 758.597C453.465 773.444 452.6 788.273 452.37 803.159C452.101 820.312 451.88 837.474 451.88 854.626C451.88 872.442 452.101 890.267 452.725 908.073C456.599 1018.55 455.734 1123.98 454.282 1238.7C453.312 1315.27 453.004 1388.31 454.532 1462.61C455.032 1486.68 452.331 1510.77 452.841 1534.85C453.081 1546.12 453.542 1563.54 454.052 1575.98L457.281 1575.98C457.32 1563.25 457.493 1550.5 457.195 1537.79Z" fill="#191919"/>
<path d="M487.211 1335.07C488.777 1245.61 488.508 1156.17 486.874 1066.7C485.077 968.674 484.471 870.598 483.558 772.542C483.318 746.323 484 720.094 483.943 693.875C483.914 680.142 483.53 666.408 483.193 652.684C483.53 638.95 483.904 625.217 483.943 611.493C484.001 585.274 483.318 559.045 483.558 532.827C484.471 434.77 485.077 336.694 486.874 238.667C488.518 149.196 488.777 59.7546 487.211 -29.7064C485.817 -109.122 482.828 -188.517 485.308 -267.99L482.011 -267.99C481.463 -259.231 480.79 -250.483 480.742 -241.724C480.579 -209.464 480.425 -177.195 480.906 -144.945C481.886 -78.7252 484.356 -12.5056 484.25 53.7042C484.106 151.328 482.165 248.943 481.155 346.567C480.579 402.482 480.3 458.396 479.973 514.32C479.819 539.693 479.945 565.057 479.829 590.431C479.743 608.352 479.56 626.264 479.426 644.185C479.358 644.569 479.31 644.963 479.31 645.347C479.32 647.796 479.349 650.235 479.358 652.684C479.339 655.133 479.32 657.572 479.31 660.021C479.31 660.406 479.349 660.799 479.426 661.183C479.57 679.104 479.752 697.016 479.829 714.937C479.945 740.311 479.829 765.684 479.973 791.048C480.3 846.963 480.579 902.887 481.155 958.801C482.165 1056.43 484.097 1154.04 484.25 1251.66C484.347 1317.87 481.886 1384.09 480.905 1450.31C480.425 1482.56 480.588 1514.83 480.742 1547.09C480.79 1556.72 481.607 1566.35 482.165 1575.97L485.029 1575.97C485.211 1575.21 485.346 1574.46 485.317 1573.71C482.818 1494.13 485.817 1414.61 487.211 1335.07Z" fill="#191919"/>
<path d="M593.078 1405.25C594.001 1342.03 594.453 1278.8 594.933 1215.55C595.414 1151.89 595.952 1088.21 595.952 1024.55C595.952 961.317 595.366 898.085 594.924 834.852C594.501 774.126 593.943 713.4 593.444 652.684C593.953 591.958 594.501 531.242 594.924 470.516C595.366 407.284 595.952 344.051 595.952 280.819C595.952 217.154 595.414 153.48 594.933 89.8152C594.453 26.5827 594.001 -36.6595 593.078 -99.8824C592.261 -155.893 594.876 -211.961 592.579 -267.99L589.368 -267.99C589.205 -230.007 588.936 -192.014 589.195 -154.03C589.916 -51.6516 591.3 50.7269 591.704 153.105C592.04 239.992 591.387 326.889 591.166 413.776C591.041 464.101 590.877 514.426 590.791 564.75C590.762 581.529 590.752 598.306 590.772 615.084C590.781 625.918 591.089 636.771 590.301 647.565C589.676 656.19 590.82 664.42 590.8 673.121C590.752 695.623 590.752 718.126 590.791 740.628C590.887 790.952 591.041 841.277 591.166 891.602C591.387 978.489 592.05 1065.39 591.704 1152.27C591.3 1254.65 589.907 1357.03 589.195 1459.41C588.926 1498.27 589.215 1537.12 589.378 1575.98L592.463 1575.98C594.952 1519.08 592.242 1462.13 593.078 1405.25Z" fill="#191919"/>
<path d="M401.517 1408.65C401.517 1378.31 399.335 1347.63 400.364 1317.36C401.44 1285.82 401.613 1254.28 400.306 1222.73C399.027 1191.67 401.776 1159.95 403.333 1128.75C404.025 1115.03 404.333 1101.24 404.246 1087.48C403.66 989.831 402.786 892.187 402.305 794.544C402.17 766.174 403.314 737.795 403.324 709.415C403.324 690.505 402.786 671.594 402.305 652.694C402.786 633.784 403.324 614.873 403.324 595.963C403.324 567.584 402.17 539.204 402.305 510.834C402.786 413.181 403.65 315.537 404.246 217.893C404.333 204.141 404.016 190.349 403.333 176.625C400.402 118.223 399.076 59.774 400.114 1.2378C400.738 -33.5958 401.382 -68.4294 401.507 -103.263C401.632 -138.961 401.104 -174.649 400.94 -210.347C400.854 -229.555 400.892 -248.763 400.844 -267.971L397.076 -267.971C397.086 -215.764 397.192 -163.557 397.269 -111.34C397.298 -91.9881 397.317 -72.6458 397.297 -53.2938C397.23 4.7718 396.692 62.8375 397.211 120.893C397.615 166.032 399.412 211.142 400.431 256.271C400.757 270.888 400.69 285.524 400.575 300.151C400.152 353.492 399.508 406.822 399.21 460.163C398.989 500.163 399.172 540.164 399.162 580.174C399.162 599.036 399.143 617.899 399.114 636.761C399.114 640.045 399.114 643.33 399.114 646.605C399.114 648.641 399.114 650.677 399.114 652.703C399.114 654.739 399.114 656.775 399.114 658.802C399.114 662.086 399.114 665.371 399.124 668.656C399.133 687.518 399.153 706.38 399.153 725.242C399.162 765.243 398.979 805.252 399.2 845.243C399.498 898.584 400.152 951.915 400.565 1005.26C400.681 1019.88 400.748 1034.52 400.421 1049.14C399.912 1071.95 401.632 1094.76 400.911 1117.73C400.383 1134.66 398.364 1151.49 397.038 1168.36C395.798 1184.13 397.076 1199.1 397.019 1214.8C396.903 1249.81 397.067 1284.83 397.192 1319.83C397.24 1332.79 397.269 1345.74 397.288 1358.7C397.307 1378.05 397.288 1397.39 397.259 1416.75C397.192 1469.23 397.086 1521.71 397.067 1574.19C397.067 1574.79 397.096 1575.39 397.105 1575.99L400.825 1575.99C400.882 1555.91 400.834 1535.83 400.93 1515.74C401.103 1480.04 401.642 1444.34 401.517 1408.65Z" fill="#191919"/>
<path d="M540.505 1322.98C540.687 1247.28 543.023 1171.6 543.167 1095.9C543.283 1035.26 541.552 974.619 540.611 913.979C540.005 874.843 538.967 835.707 538.784 796.571C538.631 763.024 539.755 729.477 539.698 695.931C539.669 681.515 538.785 667.109 538.016 652.694C538.785 638.288 539.678 623.872 539.698 609.457C539.755 575.91 538.64 542.363 538.784 508.817C538.957 469.681 539.995 430.544 540.611 391.408C541.553 330.769 543.283 270.129 543.167 209.49C543.023 133.792 540.688 58.1025 540.505 -17.5959C540.303 -101.054 541.37 -184.513 541.927 -267.981L538.304 -267.981C537.641 -199.264 536.603 -130.538 536.728 -61.822C536.833 0.536571 538.362 62.8949 539.236 125.263C540.486 214.33 538.688 303.34 536.891 392.369C535.911 440.955 535.046 489.57 535.094 538.176C535.113 561.398 535.93 584.601 536.007 607.824C536.045 620.05 535.353 632.42 534.45 644.578C533.018 663.921 536.141 683.887 535.988 703.345C535.824 724.646 535.113 745.929 535.094 767.23C535.046 815.836 535.911 864.442 536.891 913.038C538.688 1002.06 540.486 1091.08 539.236 1180.14C538.361 1242.5 536.843 1304.86 536.728 1367.23C536.612 1436.82 537.67 1506.41 538.333 1576L541.956 1576C541.389 1491.64 540.303 1407.31 540.505 1322.98Z" fill="#191919"/>
<path d="M514.266 1489.62C514.545 1391.57 515.746 1293.52 515.467 1195.47C515.266 1126.68 512.93 1057.9 512.075 989.111C511.258 922.901 510.912 856.672 510.816 790.453C510.787 768.546 512.642 746.639 512.776 724.733C512.921 700.723 512.229 676.704 511.796 652.694C512.238 628.684 512.93 604.664 512.776 580.654C512.642 558.738 510.787 536.841 510.816 514.935C510.912 448.715 511.258 382.486 512.075 316.276C512.921 247.483 515.266 178.709 515.468 109.916C515.756 11.8691 514.545 -86.1776 514.266 -184.234C514.189 -212.143 515.112 -240.062 515.516 -267.981L511.748 -267.981C511.719 -266.905 511.69 -265.829 511.681 -264.744C511.498 -214.448 511.296 -164.143 511.267 -113.847C511.239 -60.9479 511.537 -8.04955 511.412 44.8491C511.296 94.7321 511.142 144.615 510.431 194.489C509.499 259.843 507.548 325.179 506.904 390.544C506.423 439.111 507.144 487.717 507.663 536.293C507.961 564.664 509.095 593.015 509.48 621.385C509.605 630.508 508.98 639.651 508.615 648.804C508.48 649.399 508.403 649.956 508.413 650.504C508.432 651.234 508.451 651.964 508.48 652.694C508.461 653.424 508.432 654.153 508.413 654.883C508.403 655.431 508.48 655.988 508.615 656.583C508.98 665.726 509.605 674.869 509.48 684.003C509.095 712.373 507.961 740.723 507.663 769.093C507.144 817.67 506.423 866.276 506.904 914.843C507.548 980.208 509.499 1045.53 510.431 1110.9C511.142 1160.77 511.296 1210.66 511.412 1260.54C511.527 1313.44 511.229 1366.34 511.267 1419.23C511.296 1469.53 511.488 1519.84 511.681 1570.13C511.69 1572.08 511.757 1574.03 511.844 1575.98L515.525 1575.98C515.535 1575.14 515.535 1574.3 515.525 1573.45C515.112 1545.51 514.189 1517.56 514.266 1489.62Z" fill="#191919"/>
<path d="M375.855 1322.98C376.037 1247.28 378.373 1171.6 378.517 1095.9C378.632 1035.26 376.902 974.619 375.96 913.979C375.345 874.843 374.317 835.707 374.134 796.571C373.98 763.024 375.105 729.477 375.047 695.931C375.018 681.515 374.134 667.109 373.365 652.694C374.134 638.288 375.028 623.872 375.047 609.457C375.105 575.91 373.99 542.363 374.134 508.817C374.307 469.681 375.345 430.544 375.96 391.408C376.902 330.769 378.632 270.129 378.517 209.49C378.373 133.792 376.037 58.1025 375.855 -17.5959C375.653 -101.054 376.72 -184.513 377.277 -267.981L373.654 -267.981C372.991 -199.264 371.952 -130.538 372.077 -61.822C372.183 0.536561 373.711 62.8949 374.586 125.263C375.835 214.33 374.038 303.34 372.241 392.369C371.261 440.955 370.395 489.57 370.443 538.176C370.472 571.809 372.212 605.606 371.097 639.181C370.953 643.609 370.482 648.007 370.434 652.454C370.347 660.559 370.991 668.665 371.174 676.761C371.366 685.376 371.386 693.991 371.318 702.605C371.193 719.844 370.713 737.074 370.52 754.303C370.472 758.616 370.443 762.918 370.434 767.23C370.386 815.836 371.251 864.442 372.231 913.038C374.029 1002.06 375.826 1091.08 374.576 1180.14C373.702 1242.5 372.183 1304.86 372.068 1367.23C371.952 1436.82 373.01 1506.41 373.673 1576L377.296 1576C376.739 1491.64 375.653 1407.31 375.855 1322.98Z" fill="#191919"/>
<path d="M349.616 1489.62C349.895 1391.57 351.096 1293.52 350.818 1195.47C350.616 1126.68 348.28 1057.9 347.425 989.111C346.608 922.901 346.262 856.672 346.166 790.453C346.137 768.546 347.992 746.639 348.126 724.733C348.271 700.723 347.579 676.704 347.146 652.694C347.588 628.684 348.28 604.664 348.126 580.654C347.992 558.738 346.137 536.841 346.166 514.935C346.262 448.715 346.608 382.486 347.425 316.276C348.271 247.483 350.616 178.709 350.818 109.916C351.106 11.8691 349.905 -86.1776 349.616 -184.234C349.539 -212.143 350.462 -240.062 350.866 -267.981L347.098 -267.981C347.069 -266.905 347.04 -265.829 347.031 -264.744C346.848 -214.448 346.646 -164.143 346.617 -113.847C346.589 -60.9479 346.887 -8.04955 346.762 44.8491C346.646 94.7321 346.493 144.615 345.781 194.489C344.849 259.843 342.898 325.179 342.254 390.544C341.773 439.111 342.494 487.717 343.013 536.293C343.311 564.664 344.445 593.015 344.83 621.385C344.916 627.512 344.657 633.63 344.378 639.748C344.051 646.903 343.821 653.549 344.147 660.694C344.503 668.454 344.936 676.224 344.83 684.003C344.445 712.373 343.321 740.723 343.013 769.093C342.494 817.67 341.773 866.276 342.254 914.843C342.898 980.208 344.849 1045.53 345.781 1110.9C346.492 1160.77 346.646 1210.66 346.762 1260.54C346.887 1313.44 346.579 1366.34 346.617 1419.23C346.646 1469.53 346.839 1519.84 347.031 1570.13C347.04 1572.08 347.108 1574.03 347.194 1575.98L350.875 1575.98C350.885 1575.14 350.885 1574.3 350.875 1573.45C350.462 1545.51 349.53 1517.56 349.616 1489.62Z" fill="#191919"/>
<path d="M322.56 1335.07C324.127 1245.61 323.858 1156.17 322.224 1066.7C320.427 968.674 319.821 870.598 318.908 772.542C318.668 746.323 319.35 720.094 319.293 693.875C319.264 680.142 318.879 666.408 318.543 652.684C318.879 638.95 319.254 625.217 319.293 611.493C319.35 585.274 318.668 559.045 318.908 532.827C319.821 434.77 320.427 336.694 322.224 238.667C323.868 149.196 324.127 59.7545 322.56 -29.7064C321.167 -109.122 318.178 -188.517 320.657 -267.99L317.361 -267.99C316.813 -259.231 316.14 -250.483 316.092 -241.724C315.929 -209.464 315.775 -177.195 316.256 -144.945C317.236 -78.7252 319.706 -12.5056 319.6 53.7041C319.456 151.328 317.515 248.943 316.506 346.567C315.929 402.482 315.65 458.396 315.323 514.32C315.17 539.693 315.294 565.057 315.179 590.431C315.121 602.839 315.016 615.238 314.91 627.647C314.852 634.946 314.977 642.254 315.102 649.553C315.217 656.362 314.785 662.999 314.843 669.741C314.968 684.809 315.112 699.868 315.179 714.937C315.294 740.311 315.179 765.684 315.323 791.048C315.65 846.963 315.929 902.887 316.505 958.801C317.515 1056.43 319.446 1154.04 319.6 1251.66C319.696 1317.87 317.236 1384.09 316.256 1450.31C315.775 1482.56 315.938 1514.83 316.092 1547.09C316.14 1556.72 316.957 1566.35 317.514 1575.97L320.379 1575.97C320.561 1575.21 320.686 1574.46 320.667 1573.71C318.168 1494.13 321.167 1414.61 322.56 1335.07Z" fill="#191919"/>
<path d="M428.428 1405.25C429.351 1342.03 429.803 1278.8 430.283 1215.55C430.764 1151.89 431.302 1088.21 431.302 1024.55C431.302 961.317 430.716 898.085 430.274 834.852C429.851 774.126 429.293 713.4 428.793 652.684C429.303 591.958 429.851 531.242 430.274 470.516C430.716 407.284 431.302 344.051 431.302 280.819C431.302 217.154 430.764 153.48 430.283 89.8151C429.803 26.5826 429.351 -36.6595 428.428 -99.8824C427.611 -155.893 430.226 -211.961 427.929 -267.99L424.718 -267.99C424.555 -230.007 424.286 -192.014 424.545 -154.03C425.266 -51.6516 426.65 50.7269 427.054 153.105C427.4 239.992 426.737 326.889 426.516 413.776C426.391 464.101 426.227 514.426 426.141 564.75C426.093 592.275 426.102 619.8 426.189 647.325C426.198 649.112 426.294 650.907 426.41 652.694C426.294 654.48 426.189 656.276 426.189 658.062C426.102 685.587 426.093 713.112 426.141 740.637C426.237 790.962 426.391 841.287 426.516 891.612C426.737 978.499 427.4 1065.4 427.054 1152.28C426.65 1254.66 425.256 1357.04 424.545 1459.42C424.276 1498.27 424.564 1537.13 424.728 1575.99L427.813 1575.99C430.293 1519.08 427.592 1462.13 428.428 1405.25Z" fill="#191919"/>
<path d="M212.973 1416.74C212.944 1397.38 212.925 1378.04 212.944 1358.69C213.012 1300.63 213.55 1242.56 213.031 1184.5C212.627 1139.36 210.83 1094.25 209.811 1049.13C209.484 1034.51 209.551 1019.87 209.667 1005.25C210.09 951.905 210.734 898.574 211.032 845.234C211.253 805.233 211.07 765.233 211.08 725.223C211.08 706.361 211.099 687.499 211.128 668.636C211.128 665.352 211.128 662.067 211.128 658.792C211.128 656.756 211.128 654.72 211.128 652.694C211.128 650.658 211.128 648.622 211.128 646.595C211.128 643.311 211.128 640.026 211.118 636.742C211.108 617.879 211.089 599.017 211.089 580.155C211.08 540.154 211.262 500.144 211.041 460.153C210.743 406.813 210.09 353.482 209.676 300.142C209.561 285.515 209.494 270.878 209.821 256.261C210.33 233.452 208.61 210.633 209.331 187.67C209.859 170.738 211.878 153.912 213.204 137.038C214.444 121.278 213.165 106.295 213.223 90.5926C213.338 55.5862 213.175 20.5703 213.05 -14.4362C213.002 -27.3919 212.973 -40.3474 212.954 -53.3032C212.935 -72.6551 212.954 -91.9979 212.983 -111.35C213.05 -163.557 213.156 -215.764 213.175 -267.981L209.407 -267.981C209.359 -248.773 209.398 -229.565 209.311 -210.357C209.148 -174.659 208.61 -138.961 208.744 -103.273C208.744 -72.9339 210.926 -42.249 209.897 -11.9869C208.821 19.5621 208.648 51.1011 209.955 82.6501C211.233 113.709 208.485 145.431 206.928 176.625C206.236 190.349 205.928 204.141 206.014 217.893C206.601 315.547 207.475 413.19 207.956 510.834C208.091 539.204 206.947 567.584 206.937 595.963C206.937 614.873 207.475 633.783 207.956 652.684C207.475 671.594 206.937 690.505 206.937 709.415C206.937 737.794 208.09 766.174 207.956 794.544C207.475 892.197 206.61 989.841 206.014 1087.48C205.928 1101.24 206.245 1115.03 206.928 1128.75C209.859 1187.15 211.185 1245.6 210.147 1304.14C209.523 1338.97 208.879 1373.81 208.754 1408.64C208.629 1444.33 209.157 1480.03 209.321 1515.72C209.417 1535.81 209.369 1555.89 209.426 1575.97L213.146 1575.97C213.156 1575.38 213.185 1574.77 213.185 1574.17C213.146 1521.7 213.04 1469.21 212.973 1416.74Z" fill="#191919"/>
<path d="M235.675 1180.12C234.425 1091.06 236.223 1002.05 238.02 913.019C239 864.432 239.865 815.817 239.817 767.211C239.789 733.578 238.049 699.782 239.164 666.206C239.308 661.779 239.779 657.38 239.827 652.934C239.913 644.828 239.269 636.722 239.087 628.626C238.895 620.011 238.875 611.396 238.943 602.782C239.068 585.543 239.548 568.313 239.74 551.083C239.788 546.771 239.817 542.469 239.827 538.157C239.875 489.561 239.01 440.945 238.03 392.349C236.232 303.33 234.435 214.311 235.684 125.244C236.559 62.8853 238.078 0.526933 238.193 -61.8412C238.308 -130.558 237.28 -199.284 236.617 -268L232.993 -268C233.551 -184.542 234.618 -101.074 234.416 -17.6151C234.233 58.0833 231.898 133.772 231.753 209.471C231.638 270.11 233.368 330.75 234.31 391.389C234.925 430.525 235.954 469.661 236.136 508.797C236.29 542.344 235.165 575.891 235.223 609.437C235.242 623.853 236.136 638.259 236.905 652.674C236.136 667.08 235.242 681.496 235.223 695.912C235.165 729.458 236.28 763.005 236.136 796.552C235.963 835.688 234.925 874.824 234.31 913.96C233.368 974.599 231.638 1035.24 231.753 1095.88C231.898 1171.58 234.233 1247.27 234.416 1322.96C234.618 1407.3 233.531 1491.63 232.974 1575.96L236.597 1575.96C237.261 1506.37 238.328 1436.78 238.203 1367.19C238.068 1304.84 236.549 1242.48 235.675 1180.12Z" fill="#191919"/>
<path d="M263.624 1419.23C263.653 1366.34 263.355 1313.44 263.48 1260.54C263.595 1210.66 263.749 1160.77 264.46 1110.9C265.393 1045.54 267.344 980.208 267.988 914.843C268.468 866.276 267.748 817.67 267.229 769.093C266.931 740.723 265.796 712.373 265.412 684.003C265.325 677.875 265.585 671.758 265.864 665.64C266.19 658.485 266.421 651.839 266.094 644.694C265.739 636.934 265.306 629.164 265.412 621.385C265.796 593.015 266.931 564.664 267.229 536.293C267.748 487.717 268.468 439.111 267.988 390.544C267.344 325.179 265.393 259.853 264.46 194.488C263.749 144.615 263.595 94.7321 263.48 44.8491C263.365 -8.04956 263.663 -60.9479 263.624 -113.847C263.596 -164.143 263.403 -214.448 263.211 -264.744C263.211 -265.82 263.173 -266.896 263.144 -267.981L259.376 -267.981C259.78 -240.062 260.702 -212.143 260.626 -184.234C260.347 -86.1872 259.136 11.8691 259.424 109.916C259.626 178.709 261.962 247.483 262.817 316.276C263.634 382.486 263.98 448.715 264.076 514.935C264.105 536.841 262.25 558.747 262.115 580.654C261.971 604.664 262.663 628.684 263.096 652.694C262.654 676.704 261.962 700.723 262.115 724.733C262.25 746.649 264.105 768.546 264.076 790.453C263.98 856.672 263.634 922.901 262.817 989.111C261.971 1057.9 259.626 1126.68 259.424 1195.47C259.136 1293.52 260.347 1391.57 260.625 1489.62C260.702 1517.56 259.78 1545.51 259.376 1573.45C259.366 1574.3 259.366 1575.14 259.376 1575.98L263.057 1575.98C263.144 1574.03 263.211 1572.08 263.22 1570.13C263.393 1519.83 263.595 1469.53 263.624 1419.23Z" fill="#191919"/>
<path d="M293.986 1450.31C293.006 1384.09 290.536 1317.87 290.641 1251.66C290.786 1154.04 292.727 1056.43 293.736 958.801C294.313 902.887 294.592 846.972 294.918 791.048C295.072 765.675 294.947 740.311 295.063 714.937C295.12 702.529 295.226 690.13 295.332 677.722C295.399 670.423 295.265 663.114 295.14 655.815C295.024 649.006 295.457 642.369 295.399 635.627C295.274 620.559 295.13 605.5 295.063 590.431C294.947 565.057 295.063 539.684 294.918 514.32C294.592 458.405 294.313 402.482 293.736 346.567C292.727 248.943 290.795 151.328 290.642 53.7041C290.545 -12.5056 293.006 -78.7252 293.986 -144.945C294.467 -177.195 294.304 -209.464 294.15 -241.724C294.111 -250.483 293.429 -259.231 292.881 -267.99L289.584 -267.99C292.064 -188.517 289.075 -109.122 287.681 -29.7064C286.115 59.7545 286.384 149.196 288.018 238.667C289.815 336.694 290.42 434.77 291.333 532.827C291.574 559.045 290.891 585.274 290.949 611.493C290.978 625.226 291.362 638.96 291.699 652.684C291.362 666.418 290.988 680.151 290.949 693.875C290.891 720.094 291.574 746.323 291.333 772.542C290.42 870.598 289.815 968.674 288.018 1066.7C286.374 1156.17 286.115 1245.61 287.681 1335.07C289.075 1414.61 292.074 1494.12 289.575 1573.71C289.556 1574.46 289.681 1575.21 289.863 1575.97L292.727 1575.97C293.285 1566.35 294.102 1556.72 294.15 1547.09C294.303 1514.83 294.467 1482.56 293.986 1450.31Z" fill="#191919"/>
</mask>
<g mask="url(#mask0_3110_60849)">
<path d="M1243.96 1138.98L1243.96 6.00005L827.809 501.188L745.999 387.685L635.447 794.876L531.288 685.83L373.993 1138.98L1243.96 1138.98Z" fill="#CC9966"/>
</g>
</svg>
